<svg id="Capa_1" enable-background="new 0 0 512 512" height="512" viewBox="0 0 512 512" width="512" xmlns="http://www.w3.org/2000/svg"><g><path d="m256 413.153c86.464 0 156.808-70.344 156.808-156.808s-70.344-156.806-156.808-156.806-156.808 70.343-156.808 156.807 70.344 156.807 156.808 156.807zm-75.449-36.791v-53.657c0-19.897 13.823-36.617 32.368-41.086l-10.3 41.198c-1.398 5.594.361 11.503 4.592 15.42 2.965 2.746 6.812 4.207 10.732 4.207.434 0 .869-.02 1.304-.056l23.208 38.681c2.881 4.802 7.944 7.669 13.544 7.669s10.663-2.867 13.544-7.668l23.208-38.681c.435.036.87.056 1.304.056 3.92 0 7.768-1.461 10.732-4.207 4.231-3.917 5.99-9.826 4.592-15.42l-10.3-41.198c18.545 4.47 32.368 21.189 32.368 41.086v53.657c-21.866 13.795-47.739 21.791-75.449 21.791-27.707-.001-53.581-7.997-75.447-21.792zm24.885-194.67v-8.295c0-14.16 11.52-25.679 25.679-25.679h49.77c14.16 0 25.679 11.52 25.679 25.679v8.295c0 .439-.357.795-.795.795h-99.538c-.439 0-.795-.357-.795-.795zm8.295 15.795h84.538v25.68c0 11.424-4.486 22.128-12.633 30.139-8.144 8.009-18.899 12.316-30.362 12.124-22.907-.382-41.543-19.709-41.543-43.082zm77.901 129.19-23.945-7.982 18.328-27.493 8.813 35.252c.034.137.114.457-.231.776-.346.32-.658.214-.792.171l-2.128-.709c-.015-.006-.03-.01-.045-.015zm-71.306.013-2.131.711c-.135.043-.446.149-.792-.171-.345-.32-.265-.64-.231-.776l8.813-35.252 18.328 27.493-23.954 7.985c-.011.003-.022.006-.033.01zm35.674-17.506-19.166-28.748h38.331zm0 21.426 21.938 7.313-21.256 35.428c-.069.115-.231.386-.682.386-.45 0-.612-.271-.682-.386l-21.256-35.427zm0-216.071c78.193 0 141.808 63.614 141.808 141.807 0 43.844-20.003 83.101-51.359 109.133v-42.774c0-29.831-22.93-54.395-52.088-57.024.606-.548 1.207-1.104 1.793-1.681 11.037-10.854 17.115-25.356 17.115-40.834v-27.578c4.935-2.674 8.295-7.9 8.295-13.897v-8.295c0-22.431-18.249-40.679-40.679-40.679h-49.77c-22.431 0-40.679 18.248-40.679 40.679v8.295c0 5.997 3.36 11.223 8.295 13.897v26.759c0 17.125 7.47 32.628 19.265 43.307-29.327 2.46-52.445 27.099-52.445 57.051v42.774c-31.356-26.032-51.359-65.29-51.359-109.133 0-78.193 63.615-141.807 141.808-141.807z"/><path d="m121.647 132.624c-3.159-2.68-7.891-2.291-10.571.866-29.059 34.247-45.063 77.878-45.063 122.855 0 104.759 85.228 189.987 189.987 189.987s189.987-85.227 189.987-189.987-85.228-189.986-189.987-189.986c-44.972 0-88.598 15.999-122.842 45.052-3.159 2.68-3.547 7.413-.867 10.571s7.413 3.547 10.571.867c31.537-26.755 71.717-41.49 113.138-41.49 96.488 0 174.987 78.499 174.987 174.987s-78.499 174.986-174.987 174.986-174.987-78.498-174.987-174.986c0-41.427 14.738-81.612 41.501-113.15 2.679-3.159 2.292-7.892-.867-10.572z"/><path d="m498.159 206.177-25.358-3.161c-.324-.04-.585-.274-.665-.596-5.371-21.601-13.944-42.217-25.48-61.273-.174-.288-.156-.641.044-.898l15.762-20.25c4.885-6.274 4.328-15.247-1.295-20.87l-48.294-48.294c-5.624-5.624-14.596-6.181-20.87-1.296l-20.352 15.84c-.257.2-.61.219-.897.045-19.027-11.458-39.597-19.967-61.139-25.29-.323-.08-.558-.341-.598-.665l-3.194-25.627c-.984-7.891-7.722-13.842-15.674-13.842h-68.299c-7.952 0-14.69 5.951-15.673 13.841l-3.194 25.627c-.04.324-.275.585-.598.665-21.542 5.323-42.112 13.832-61.139 25.29-.287.173-.64.155-.897-.045l-20.352-15.84c-6.274-4.884-15.246-4.328-20.87 1.296l-48.294 48.294c-5.623 5.623-6.179 14.595-1.295 20.869l15.761 20.251c.201.258.219.611.045.898-11.537 19.057-20.11 39.673-25.481 61.274-.08.322-.34.555-.664.596l-25.358 3.161c-7.89.984-13.841 7.722-13.841 15.674v68.298c0 7.952 5.951 14.69 13.841 15.673l25.184 3.139c.324.04.585.275.665.599 5.322 21.71 13.875 42.434 25.422 61.597.172.286.154.637-.046.895l-15.528 19.95c-4.884 6.274-4.327 15.247 1.295 20.87l48.294 48.294c5.623 5.624 14.596 6.18 20.87 1.295l19.851-15.45c.258-.201.611-.218.897-.045 19.192 11.626 39.961 20.244 61.73 25.614.322.08.556.34.596.664l3.105 24.914c.983 7.891 7.722 13.841 15.674 13.841h68.298c7.952 0 14.69-5.951 15.674-13.841l3.105-24.914c.041-.324.274-.584.597-.664 6.409-1.581 12.815-3.47 19.042-5.614 3.917-1.348 5.999-5.616 4.65-9.533-1.348-3.916-5.615-5.998-9.533-4.65-5.805 1.999-11.778 3.759-17.752 5.233-6.308 1.556-11.086 6.93-11.889 13.372l-3.105 24.914c-.05.398-.389.697-.789.697h-68.298c-.4 0-.739-.299-.789-.697l-3.105-24.914c-.803-6.442-5.581-11.816-11.889-13.372-20.295-5.006-39.657-13.04-57.551-23.88-5.566-3.372-12.753-2.955-17.882 1.038l-19.851 15.45c-.314.247-.767.218-1.05-.065l-48.293-48.292c-.283-.283-.311-.735-.065-1.051l15.528-19.95c3.983-5.117 4.407-12.292 1.056-17.85-10.766-17.865-18.74-37.186-23.701-57.425-1.549-6.321-6.926-11.108-13.378-11.912l-25.183-3.139c-.398-.05-.697-.389-.697-.789v-68.298c0-.4.299-.739.697-.789l25.359-3.161c6.43-.802 11.801-5.569 13.365-11.862 5.007-20.138 12.999-39.357 23.756-57.125 3.369-5.566 2.952-12.751-1.04-17.879l-15.762-20.251c-.246-.316-.217-.767.065-1.05l48.294-48.294c.282-.283.734-.31 1.05-.065l20.352 15.84c5.115 3.982 12.288 4.407 17.848 1.058 17.739-10.683 36.917-18.615 56.999-23.578 6.306-1.559 11.082-6.932 11.884-13.372l3.194-25.627c.05-.398.389-.697.789-.697h68.299c.4 0 .739.299.789.697l3.194 25.627c.803 6.44 5.579 11.813 11.884 13.372 20.082 4.962 39.26 12.895 56.999 23.578 5.561 3.349 12.734 2.923 17.848-1.058l20.352-15.841c.317-.246.768-.215 1.05.066l48.294 48.294c.283.283.312.734.065 1.051l-15.763 20.252c-3.99 5.128-4.407 12.313-1.038 17.878 10.756 17.767 18.749 36.987 23.755 57.124 1.565 6.293 6.936 11.061 13.366 11.862l25.358 3.161c.397.05.697.389.697.789v68.298c0 .4-.299.739-.697.789l-25.183 3.139c-6.452.804-11.829 5.591-13.378 11.912-4.961 20.239-12.936 39.56-23.702 57.425-3.351 5.56-2.926 12.734 1.057 17.85l15.528 19.951c.246.316.218.768-.065 1.05l-48.294 48.294c-.283.283-.734.312-1.05.065l-19.851-15.451c-5.129-3.991-12.315-4.408-17.882-1.037-4.278 2.591-8.704 5.057-13.153 7.327-3.69 1.883-5.154 6.4-3.272 10.09 1.882 3.689 6.399 5.152 10.09 3.271 4.772-2.435 9.519-5.08 14.107-7.858.287-.174.64-.155.897.044l19.85 15.45c6.275 4.886 15.247 4.329 20.87-1.295l48.295-48.294c5.622-5.623 6.179-14.595 1.295-20.87l-15.528-19.95c-.2-.258-.218-.609-.046-.896 11.548-19.163 20.101-39.887 25.422-61.596.08-.323.34-.558.665-.599l25.183-3.139c7.891-.983 13.841-7.722 13.841-15.673v-68.298c.002-7.953-5.949-14.691-13.839-15.675z"/></g></svg>