<svg id="Capa_1" enable-background="new 0 0 512 512" height="512" viewBox="0 0 512 512" width="512" xmlns="http://www.w3.org/2000/svg"><g><path d="m397.737 62.639c0-5.522-4.478-10-10-10h-.057c-5.522 0-9.972 4.478-9.972 10s4.506 10 10.028 10 10.001-4.478 10.001-10z"/><path d="m451.708 62.639c0-5.522-4.478-10-10-10h-.057c-5.522 0-9.972 4.478-9.972 10s4.506 10 10.028 10 10.001-4.478 10.001-10z"/><path d="m343.767 62.639c0-5.522-4.478-10-10-10h-.057c-5.522 0-9.972 4.478-9.972 10s4.506 10 10.028 10 10.001-4.478 10.001-10z"/><path d="m60.263 62.639c0 5.522 4.477 10 10 10h150.262c5.523 0 10-4.478 10-10s-4.477-10-10-10h-150.262c-5.523 0-10 4.477-10 10z"/><path d="m479.919 0h-313.024c-5.523 0-10 4.478-10 10s4.477 10 10 10h313.024c6.661 0 12.081 5.42 12.081 12.081v73.224h-472v-73.224c0-6.661 5.42-12.081 12.082-12.081h44.985c5.523 0 10-4.478 10-10s-4.477-10-10-10h-44.985c-17.69 0-32.082 14.392-32.082 32.081v370.283c0 17.689 14.392 32.081 32.082 32.081h124.998c23.552 22.281 54.595 36.712 88.905 39.077v28.478c0 5.522 4.477 10 10 10s10-4.478 10-10v-28.478c34.318-2.365 65.367-16.795 88.924-39.077h125.008c17.689 0 32.081-14.392 32.081-32.081v-370.283c.002-17.689-14.39-32.081-32.079-32.081zm-347.577 339.799h32.669c4.638 42.508 38.481 76.361 80.975 81.002v32.67c-60.443-4.846-108.8-53.215-113.644-113.672zm214.646-20c-4.641-42.494-38.494-76.337-81.002-80.975v-32.669c60.456 4.844 108.825 53.201 113.671 113.644zm-91.002 81.551c-39.438 0-71.523-32.098-71.523-71.551 0-39.438 32.085-71.523 71.523-71.523 39.454 0 71.551 32.085 71.551 71.523 0 39.453-32.098 71.551-71.551 71.551zm-10-162.526c-42.493 4.639-76.335 38.482-80.974 80.975h-32.669c4.845-60.442 53.201-108.799 113.644-113.644v32.669zm20 181.977c42.509-4.64 76.363-38.494 81.002-81.002h32.669c-4.845 60.458-53.214 108.827-113.671 113.672zm213.933-6.356h-107.421c15.482-21.252 25.298-46.878 27.211-74.646h28.479c5.522 0 10-4.478 10-10s-4.478-10-10-10h-28.479c-4.927-71.476-62.232-128.77-133.722-133.695v-28.478c0-5.522-4.478-10-10-10s-10 4.478-10 10v28.478c-71.475 4.926-128.769 62.219-133.695 133.695h-28.479c-5.523 0-10 4.478-10 10s4.477 10 10 10h28.478c1.913 27.769 11.727 53.395 27.206 74.646h-107.415c-6.662 0-12.082-5.42-12.082-12.081v-277.06h472v277.06c0 6.661-5.42 12.081-12.081 12.081z"/><path d="m290.441 300.279c-4.23-3.546-10.539-2.992-14.087 1.243l-30.166 36.003-11.774-9.972c-4.213-3.569-10.524-3.046-14.094 1.168-3.569 4.215-3.046 10.524 1.168 14.094l19.445 16.469c1.813 1.535 4.105 2.369 6.462 2.369 2.873-.001 5.428-1.194 7.666-3.578l36.623-43.708c3.547-4.233 2.991-10.541-1.243-14.088z"/><path d="m121.995 20h.028c5.523 0 9.986-4.478 9.986-10s-4.491-10-10.014-10-10 4.478-10 10 4.477 10 10 10z"/></g></svg>