<svg viewBox="0 0 155 159" fill="none" xmlns="http://www.w3.org/2000/svg">
<circle cx="129" cy="30" r="3" fill="#DBF88B"/>
<circle cx="78" cy="66" r="3" fill="#57CFF5"/>
<circle cx="78" cy="66" r="3" fill="#57CFF5"/>
<circle cx="19" cy="46" r="3" fill="#57CFF5"/>
<circle cx="19" cy="46" r="3" fill="#57CFF5"/>
<circle cx="121" cy="25" r="3" fill="#57CFF5"/>
<circle cx="121" cy="25" r="3" fill="#57CFF5"/>
<ellipse cx="50.8571" cy="139.333" rx="2.14286" ry="2.33333" fill="#57CFF5"/>
<ellipse cx="50.8571" cy="139.333" rx="2.14286" ry="2.33333" fill="#57CFF5"/>
<ellipse cx="78.2857" cy="155.667" rx="1.71429" ry="1.66667" fill="#57CFF5"/>
<ellipse cx="78.2857" cy="155.667" rx="1.71429" ry="1.66667" fill="#57CFF5"/>
<circle cx="104" cy="15" r="3" fill="#57CFF5"/>
<circle cx="104" cy="15" r="3" fill="#57CFF5"/>
<circle cx="65" cy="14" r="3" fill="#57CFF5"/>
<circle cx="65" cy="14" r="3" fill="#57CFF5"/>
<circle cx="37" cy="139" r="3" fill="#57CFF5"/>
<circle cx="37" cy="139" r="3" fill="#57CFF5"/>
<circle cx="147" cy="108" r="3" fill="#57CFF5"/>
<circle cx="147" cy="108" r="3" fill="#57CFF5"/>
<ellipse cx="43.8571" cy="144.333" rx="2.14286" ry="2.33333" fill="#57CFF5"/>
<ellipse cx="43.8571" cy="144.333" rx="2.14286" ry="2.33333" fill="#F3A9A9"/>
<ellipse cx="152.857" cy="70.3333" rx="2.14286" ry="2.33333" fill="#57CFF5"/>
<ellipse cx="152.857" cy="70.3333" rx="2.14286" ry="2.33333" fill="#F3A9A9"/>
<ellipse cx="15.8571" cy="113.333" rx="2.14286" ry="2.33333" fill="#57CFF5"/>
<ellipse cx="15.8571" cy="113.333" rx="2.14286" ry="2.33333" fill="#F3A9A9"/>
<ellipse cx="139.857" cy="41.3333" rx="2.14286" ry="2.33333" fill="#57CFF5"/>
<ellipse cx="139.857" cy="41.3333" rx="2.14286" ry="2.33333" fill="#F3A9A9"/>
<circle cx="120" cy="33" r="3" fill="#57CFF5"/>
<circle cx="120" cy="33" r="3" fill="#F3A9A9"/>
<circle cx="70" cy="153" r="3" fill="#57CFF5"/>
<circle cx="70" cy="153" r="3" fill="#F3A9A9"/>
<circle cx="140" cy="111" r="3" fill="#57CFF5"/>
<circle cx="140" cy="111" r="3" fill="#F3A9A9"/>
<circle cx="103" cy="22" r="3" fill="#57CFF5"/>
<circle cx="103" cy="22" r="3" fill="#F3A9A9"/>
<circle cx="107" cy="150" r="3" fill="#57CFF5"/>
<circle cx="107" cy="150" r="3" fill="#F3A9A9"/>
<circle cx="75" cy="144" r="3" fill="#57CFF5"/>
<circle cx="75" cy="144" r="3" fill="#F3A9A9"/>
<circle cx="17" cy="54" r="3" fill="#DBF88B"/>
<circle cx="136" cy="129" r="3" fill="#DBF88B"/>
<circle cx="88" cy="12" r="3" fill="#DBF88B"/>
<ellipse cx="72.4286" cy="11.3333" rx="2.57143" ry="2.33333" fill="#DBF88B"/>
<circle cx="58" cy="17" r="3" fill="#DBF88B"/>
<circle cx="111" cy="19" r="3" fill="#DBF88B"/>
<circle cx="55" cy="79" r="3" fill="#DBF88B"/>
<circle cx="94" cy="153" r="3" fill="#DBF88B"/>
<circle cx="33" cy="29" r="3" fill="#DBF88B"/>
<circle cx="143" cy="117" r="3" fill="#DBF88B"/>
<circle cx="14.5789" cy="61.8054" r="3" transform="rotate(15.3531 14.5789 61.8054)" fill="#57CFF5"/>
<circle cx="12.196" cy="70.4842" r="3" transform="rotate(15.3531 12.196 70.4842)" fill="#DBF88B"/>
<circle cx="21.7178" cy="110.022" r="3" transform="rotate(8.52515 21.7178 110.022)" fill="#57CFF5"/>
<circle cx="20.3837" cy="118.922" r="3" transform="rotate(8.52515 20.3837 118.922)" fill="#DBF88B"/>
<circle cx="27.2049" cy="118.112" r="3" transform="rotate(-59.2319 27.2049 118.112)" fill="#57CFF5"/>
<circle cx="25.6902" cy="126.521" r="3" transform="rotate(-59.2319 25.6902 126.521)" fill="#F3A9A9"/>
<circle cx="33.4234" cy="131.125" r="3" transform="rotate(-59.2319 33.4234 131.125)" fill="#8AFFF8"/>
<circle cx="137.286" cy="121.346" r="3" transform="rotate(-7.06919 137.286 121.346)" fill="#57CFF5"/>
<circle cx="129.716" cy="125.308" r="3" transform="rotate(-7.06919 129.716 125.308)" fill="#F3A9A9"/>
<circle cx="130.823" cy="134.24" r="3" transform="rotate(-7.06919 130.823 134.24)" fill="#8AFFF8"/>
<circle cx="135.486" cy="36.1475" r="3" transform="rotate(-57.1582 135.486 36.1475)" fill="#57CFF5"/>
<circle cx="133.668" cy="44.4958" r="3" transform="rotate(-57.1582 133.668 44.4958)" fill="#F3A9A9"/>
<circle cx="141.23" cy="49.3767" r="3" transform="rotate(-57.1582 141.23 49.3767)" fill="#8AFFF8"/>
<circle cx="49.3623" cy="103.483" r="3" transform="rotate(-13.9988 49.3623 103.483)" fill="#F3A9A9"/>
<circle cx="51.5394" cy="112.215" r="3" transform="rotate(-13.9988 51.5394 112.215)" fill="#8AFFF8"/>
<circle cx="66.322" cy="105.45" r="3" transform="rotate(42.5263 66.322 105.45)" fill="#F3A9A9"/>
<circle cx="60.2387" cy="112.082" r="3" transform="rotate(42.5263 60.2387 112.082)" fill="#8AFFF8"/>
<circle cx="49.1843" cy="73.4921" r="3" transform="rotate(54.4561 49.1843 73.4921)" fill="#F3A9A9"/>
<circle cx="41.8613" cy="78.724" r="3" transform="rotate(54.4561 41.8613 78.724)" fill="#8AFFF8"/>
<circle cx="18.8174" cy="92.4468" r="3" transform="rotate(-16.1477 18.8174 92.4468)" fill="#57CFF5"/>
<circle cx="21.3204" cy="101.092" r="3" transform="rotate(-16.1477 21.3204 101.092)" fill="#DBF88B"/>
<circle cx="11.9673" cy="97.5533" r="3" transform="rotate(-16.1477 11.9673 97.5533)" fill="#F3A9A9"/>
<circle cx="14.4704" cy="106.198" r="3" transform="rotate(-16.1477 14.4704 106.198)" fill="#8AFFF8"/>
<circle cx="101.073" cy="120.076" r="3" transform="rotate(-1.46975 101.073 120.076)" fill="#57CFF5"/>
<circle cx="101.304" cy="129.073" r="3" transform="rotate(-1.46975 101.304 129.073)" fill="#DBF88B"/>
<circle cx="93.1529" cy="123.28" r="3" transform="rotate(-1.46975 93.1529 123.28)" fill="#F3A9A9"/>
<circle cx="93.3838" cy="132.277" r="3" transform="rotate(-1.46975 93.3838 132.277)" fill="#8AFFF8"/>
<circle cx="101.073" cy="120.076" r="3" transform="rotate(-1.46975 101.073 120.076)" fill="#57CFF5"/>
<circle cx="101.304" cy="129.073" r="3" transform="rotate(-1.46975 101.304 129.073)" fill="#DBF88B"/>
<circle cx="93.1529" cy="123.28" r="3" transform="rotate(-1.46975 93.1529 123.28)" fill="#F3A9A9"/>
<circle cx="93.3838" cy="132.277" r="3" transform="rotate(-1.46975 93.3838 132.277)" fill="#8AFFF8"/>
<circle cx="85.0733" cy="124.076" r="3" transform="rotate(-1.46975 85.0733 124.076)" fill="#57CFF5"/>
<circle cx="85.3042" cy="133.073" r="3" transform="rotate(-1.46975 85.3042 133.073)" fill="#DBF88B"/>
<circle cx="77.1529" cy="127.28" r="3" transform="rotate(-1.46975 77.1529 127.28)" fill="#F3A9A9"/>
<circle cx="77.3838" cy="136.277" r="3" transform="rotate(-1.46975 77.3838 136.277)" fill="#8AFFF8"/>
<circle cx="49.3808" cy="123.549" r="3" transform="rotate(-11.7797 49.3808 123.549)" fill="#57CFF5"/>
<circle cx="51.2181" cy="132.36" r="3" transform="rotate(-11.7797 51.2181 132.36)" fill="#DBF88B"/>
<circle cx="42.1617" cy="128.119" r="3" transform="rotate(-11.7797 42.1617 128.119)" fill="#F3A9A9"/>
<circle cx="43.9991" cy="136.93" r="3" transform="rotate(-11.7797 43.9991 136.93)" fill="#8AFFF8"/>
<circle cx="66.3808" cy="135.549" r="3" transform="rotate(-11.7797 66.3808 135.549)" fill="#57CFF5"/>
<circle cx="68.2181" cy="144.36" r="3" transform="rotate(-11.7797 68.2181 144.36)" fill="#DBF88B"/>
<circle cx="59.1617" cy="140.119" r="3" transform="rotate(-11.7797 59.1617 140.119)" fill="#F3A9A9"/>
<circle cx="60.9991" cy="148.93" r="3" transform="rotate(-11.7797 60.9991 148.93)" fill="#8AFFF8"/>
<circle cx="79.1579" cy="149.161" r="3" transform="rotate(-146.471 79.1579 149.161)" fill="#57CFF5"/>
<circle cx="84.1292" cy="141.659" r="3" transform="rotate(-146.471 84.1292 141.659)" fill="#DBF88B"/>
<circle cx="87.4838" cy="151.079" r="3" transform="rotate(-146.471 87.4838 151.079)" fill="#F3A9A9"/>
<circle cx="92.4551" cy="143.577" r="3" transform="rotate(-146.471 92.4551 143.577)" fill="#8AFFF8"/>
<circle cx="123.073" cy="129.076" r="3" transform="rotate(-1.46975 123.073 129.076)" fill="#57CFF5"/>
<circle cx="123.304" cy="138.073" r="3" transform="rotate(-1.46975 123.304 138.073)" fill="#DBF88B"/>
<circle cx="115.153" cy="132.28" r="3" transform="rotate(-1.46975 115.153 132.28)" fill="#F3A9A9"/>
<circle cx="115.384" cy="141.277" r="3" transform="rotate(-1.46975 115.384 141.277)" fill="#8AFFF8"/>
<circle cx="107.073" cy="134.076" r="3" transform="rotate(-1.46975 107.073 134.076)" fill="#57CFF5"/>
<circle cx="107.304" cy="143.073" r="3" transform="rotate(-1.46975 107.304 143.073)" fill="#DBF88B"/>
<circle cx="99.1529" cy="137.28" r="3" transform="rotate(-1.46975 99.1529 137.28)" fill="#F3A9A9"/>
<circle cx="99.3838" cy="146.277" r="3" transform="rotate(-1.46975 99.3838 146.277)" fill="#8AFFF8"/>
<circle cx="117.073" cy="113.076" r="3" transform="rotate(-1.46975 117.073 113.076)" fill="#57CFF5"/>
<circle cx="117.304" cy="122.073" r="3" transform="rotate(-1.46975 117.304 122.073)" fill="#DBF88B"/>
<circle cx="109.153" cy="116.28" r="3" transform="rotate(-1.46975 109.153 116.28)" fill="#F3A9A9"/>
<circle cx="109.384" cy="125.277" r="3" transform="rotate(-1.46975 109.384 125.277)" fill="#8AFFF8"/>
<circle cx="132" cy="107" r="3" fill="#57CFF5"/>
<circle cx="132" cy="116" r="3" fill="#DBF88B"/>
<circle cx="124" cy="110" r="3" fill="#F3A9A9"/>
<circle cx="124" cy="119" r="3" fill="#8AFFF8"/>
<circle cx="150" cy="91" r="3" fill="#57CFF5"/>
<circle cx="150" cy="100" r="3" fill="#DBF88B"/>
<circle cx="142" cy="94" r="3" fill="#F3A9A9"/>
<circle cx="142" cy="103" r="3" fill="#8AFFF8"/>
<circle cx="42" cy="110" r="3" fill="#57CFF5"/>
<circle cx="42" cy="119" r="3" fill="#DBF88B"/>
<circle cx="34" cy="113" r="3" fill="#F3A9A9"/>
<circle cx="34" cy="122" r="3" fill="#8AFFF8"/>
<circle cx="19" cy="76" r="3" fill="#57CFF5"/>
<circle cx="19" cy="85" r="3" fill="#DBF88B"/>
<circle cx="11" cy="79" r="3" fill="#F3A9A9"/>
<circle cx="11" cy="88" r="3" fill="#8AFFF8"/>
<circle cx="36" cy="95" r="3" fill="#57CFF5"/>
<circle cx="36" cy="104" r="3" fill="#DBF88B"/>
<circle cx="28" cy="98" r="3" fill="#F3A9A9"/>
<circle cx="28" cy="107" r="3" fill="#8AFFF8"/>
<circle cx="34" cy="78" r="3" fill="#57CFF5"/>
<circle cx="34" cy="87" r="3" fill="#DBF88B"/>
<circle cx="26" cy="81" r="3" fill="#F3A9A9"/>
<circle cx="26" cy="90" r="3" fill="#8AFFF8"/>
<circle cx="33" cy="57" r="3" fill="#57CFF5"/>
<circle cx="33" cy="66" r="3" fill="#DBF88B"/>
<circle cx="25" cy="60" r="3" fill="#F3A9A9"/>
<circle cx="25" cy="69" r="3" fill="#8AFFF8"/>
<circle cx="33" cy="37" r="3" fill="#57CFF5"/>
<circle cx="33" cy="46" r="3" fill="#DBF88B"/>
<circle cx="25" cy="40" r="3" fill="#F3A9A9"/>
<circle cx="25" cy="49" r="3" fill="#8AFFF8"/>
<circle cx="101" cy="103" r="3" fill="#57CFF5"/>
<circle cx="101" cy="112" r="3" fill="#DBF88B"/>
<circle cx="93" cy="106" r="3" fill="#F3A9A9"/>
<circle cx="93" cy="115" r="3" fill="#8AFFF8"/>
<circle cx="66" cy="89" r="3" fill="#57CFF5"/>
<circle cx="66" cy="98" r="3" fill="#DBF88B"/>
<circle cx="58" cy="92" r="3" fill="#F3A9A9"/>
<circle cx="58" cy="101" r="3" fill="#8AFFF8"/>
<circle cx="149" cy="75" r="3" fill="#57CFF5"/>
<circle cx="149" cy="84" r="3" fill="#DBF88B"/>
<circle cx="141" cy="78" r="3" fill="#F3A9A9"/>
<circle cx="141" cy="87" r="3" fill="#8AFFF8"/>
<circle cx="133" cy="90" r="3" fill="#57CFF5"/>
<circle cx="133" cy="99" r="3" fill="#DBF88B"/>
<circle cx="125" cy="93" r="3" fill="#F3A9A9"/>
<circle cx="125" cy="102" r="3" fill="#8AFFF8"/>
<circle cx="116" cy="96" r="3" fill="#57CFF5"/>
<circle cx="116" cy="105" r="3" fill="#DBF88B"/>
<circle cx="108" cy="99" r="3" fill="#F3A9A9"/>
<circle cx="108" cy="108" r="3" fill="#8AFFF8"/>
<circle cx="48" cy="57" r="3" fill="#57CFF5"/>
<circle cx="48" cy="66" r="3" fill="#DBF88B"/>
<circle cx="40" cy="60" r="3" fill="#F3A9A9"/>
<circle cx="40" cy="69" r="3" fill="#8AFFF8"/>
<circle cx="68" cy="118" r="3" fill="#57CFF5"/>
<circle cx="68" cy="127" r="3" fill="#DBF88B"/>
<circle cx="60" cy="121" r="3" fill="#F3A9A9"/>
<circle cx="60" cy="130" r="3" fill="#8AFFF8"/>
<circle cx="51" cy="86" r="3" fill="#57CFF5"/>
<circle cx="51" cy="95" r="3" fill="#DBF88B"/>
<circle cx="43" cy="89" r="3" fill="#F3A9A9"/>
<circle cx="43" cy="98" r="3" fill="#8AFFF8"/>
<circle cx="84" cy="108" r="3" fill="#57CFF5"/>
<circle cx="84" cy="117" r="3" fill="#DBF88B"/>
<circle cx="76" cy="111" r="3" fill="#F3A9A9"/>
<circle cx="76" cy="120" r="3" fill="#8AFFF8"/>
<circle cx="82" cy="91" r="3" fill="#57CFF5"/>
<circle cx="82" cy="100" r="3" fill="#DBF88B"/>
<circle cx="74" cy="94" r="3" fill="#F3A9A9"/>
<circle cx="74" cy="103" r="3" fill="#8AFFF8"/>
<circle cx="69" cy="71" r="3" fill="#57CFF5"/>
<circle cx="69" cy="80" r="3" fill="#DBF88B"/>
<circle cx="61" cy="74" r="3" fill="#F3A9A9"/>
<circle cx="61" cy="83" r="3" fill="#8AFFF8"/>
<circle cx="85" cy="72" r="3" fill="#57CFF5"/>
<circle cx="85" cy="81" r="3" fill="#DBF88B"/>
<circle cx="77" cy="75" r="3" fill="#F3A9A9"/>
<circle cx="77" cy="84" r="3" fill="#8AFFF8"/>
<circle cx="98" cy="86" r="3" fill="#57CFF5"/>
<circle cx="98" cy="95" r="3" fill="#DBF88B"/>
<circle cx="90" cy="89" r="3" fill="#F3A9A9"/>
<circle cx="90" cy="98" r="3" fill="#8AFFF8"/>
<circle cx="63" cy="40" r="3" fill="#57CFF5"/>
<circle cx="63" cy="49" r="3" fill="#DBF88B"/>
<circle cx="55" cy="43" r="3" fill="#F3A9A9"/>
<circle cx="55" cy="52" r="3" fill="#8AFFF8"/>
<circle cx="80" cy="31" r="3" fill="#57CFF5"/>
<circle cx="80" cy="40" r="3" fill="#DBF88B"/>
<circle cx="72" cy="34" r="3" fill="#F3A9A9"/>
<circle cx="72" cy="43" r="3" fill="#8AFFF8"/>
<circle cx="109" cy="46" r="3" fill="#57CFF5"/>
<circle cx="109" cy="55" r="3" fill="#DBF88B"/>
<circle cx="101" cy="49" r="3" fill="#F3A9A9"/>
<circle cx="101" cy="58" r="3" fill="#8AFFF8"/>
<circle cx="96" cy="16" r="3" fill="#57CFF5"/>
<circle cx="96" cy="25" r="3" fill="#DBF88B"/>
<circle cx="88" cy="19" r="3" fill="#F3A9A9"/>
<circle cx="88" cy="28" r="3" fill="#8AFFF8"/>
<circle cx="114" cy="79" r="3" fill="#57CFF5"/>
<circle cx="114" cy="88" r="3" fill="#DBF88B"/>
<circle cx="106" cy="82" r="3" fill="#F3A9A9"/>
<circle cx="106" cy="91" r="3" fill="#8AFFF8"/>
<circle cx="79" cy="49" r="3" fill="#57CFF5"/>
<circle cx="79" cy="58" r="3" fill="#DBF88B"/>
<circle cx="71" cy="52" r="3" fill="#F3A9A9"/>
<circle cx="71" cy="61" r="3" fill="#8AFFF8"/>
<circle cx="96" cy="34" r="3" fill="#57CFF5"/>
<circle cx="96" cy="43" r="3" fill="#DBF88B"/>
<circle cx="88" cy="37" r="3" fill="#F3A9A9"/>
<circle cx="88" cy="46" r="3" fill="#8AFFF8"/>
<circle cx="117" cy="61" r="3" fill="#57CFF5"/>
<circle cx="117" cy="70" r="3" fill="#DBF88B"/>
<circle cx="109" cy="64" r="3" fill="#F3A9A9"/>
<circle cx="109" cy="73" r="3" fill="#8AFFF8"/>
<circle cx="113" cy="27" r="3" fill="#57CFF5"/>
<circle cx="113" cy="36" r="3" fill="#DBF88B"/>
<circle cx="105" cy="30" r="3" fill="#F3A9A9"/>
<circle cx="105" cy="39" r="3" fill="#8AFFF8"/>
<circle cx="131" cy="73" r="3" fill="#57CFF5"/>
<circle cx="131" cy="82" r="3" fill="#DBF88B"/>
<circle cx="123" cy="76" r="3" fill="#F3A9A9"/>
<circle cx="123" cy="85" r="3" fill="#8AFFF8"/>
<circle cx="94" cy="52" r="3" fill="#57CFF5"/>
<circle cx="94" cy="61" r="3" fill="#DBF88B"/>
<circle cx="86" cy="55" r="3" fill="#F3A9A9"/>
<circle cx="86" cy="64" r="3" fill="#8AFFF8"/>
<circle cx="132" cy="55" r="3" fill="#57CFF5"/>
<circle cx="132" cy="64" r="3" fill="#DBF88B"/>
<circle cx="124" cy="58" r="3" fill="#F3A9A9"/>
<circle cx="124" cy="67" r="3" fill="#8AFFF8"/>
<circle cx="126" cy="40" r="3" fill="#57CFF5"/>
<circle cx="126" cy="49" r="3" fill="#DBF88B"/>
<circle cx="118" cy="43" r="3" fill="#F3A9A9"/>
<circle cx="118" cy="52" r="3" fill="#8AFFF8"/>
<circle cx="101" cy="67" r="3" fill="#57CFF5"/>
<circle cx="101" cy="76" r="3" fill="#DBF88B"/>
<circle cx="93" cy="70" r="3" fill="#F3A9A9"/>
<circle cx="93" cy="79" r="3" fill="#8AFFF8"/>
<circle cx="147" cy="58" r="3" fill="#57CFF5"/>
<circle cx="147" cy="67" r="3" fill="#DBF88B"/>
<circle cx="139" cy="61" r="3" fill="#F3A9A9"/>
<circle cx="139" cy="70" r="3" fill="#8AFFF8"/>
<circle cx="64" cy="57" r="3" fill="#57CFF5"/>
<circle cx="64" cy="66" r="3" fill="#DBF88B"/>
<circle cx="56" cy="60" r="3" fill="#F3A9A9"/>
<circle cx="56" cy="69" r="3" fill="#8AFFF8"/>
<circle cx="81" cy="15" r="3" fill="#57CFF5"/>
<circle cx="81" cy="24" r="3" fill="#DBF88B"/>
<circle cx="73" cy="18" r="3" fill="#F3A9A9"/>
<circle cx="73" cy="27" r="3" fill="#8AFFF8"/>
<circle cx="64" cy="22" r="3" fill="#57CFF5"/>
<circle cx="64" cy="31" r="3" fill="#DBF88B"/>
<circle cx="56" cy="25" r="3" fill="#F3A9A9"/>
<circle cx="56" cy="34" r="3" fill="#8AFFF8"/>
<circle cx="48" cy="39" r="3" fill="#57CFF5"/>
<circle cx="48" cy="48" r="3" fill="#DBF88B"/>
<circle cx="40" cy="42" r="3" fill="#F3A9A9"/>
<circle cx="40" cy="51" r="3" fill="#8AFFF8"/>
<circle cx="48" cy="22" r="3" fill="#57CFF5"/>
<circle cx="48" cy="31" r="3" fill="#DBF88B"/>
<circle cx="40" cy="25" r="3" fill="#F3A9A9"/>
<circle cx="40" cy="34" r="3" fill="#8AFFF8"/>
</svg>
