<svg id="icons" enable-background="new 0 0 64 64" height="512" viewBox="0 0 64 64" width="512" xmlns="http://www.w3.org/2000/svg"><g><g><g><path d="m6.501 17c-.553 0-1-.448-1-1s.447-1 1-1c2.757 0 5-2.243 5-5s-2.243-5-5-5c-.553 0-1-.448-1-1s.447-1 1-1c3.859 0 7 3.14 7 7s-3.141 7-7 7z"/></g><g><path d="m6.501 61c-.553 0-1-.447-1-1s.447-1 1-1c2.757 0 5-2.243 5-5 0-.553.447-1 1-1s1 .447 1 1c0 3.859-3.141 7-7 7z"/></g><g><path d="m6.001 14.001c-3.032 0-5.5-2.467-5.5-5.5s2.468-5.5 5.5-5.5c.553 0 1 .448 1 1s-.447 1-1 1c-1.93 0-3.5 1.57-3.5 3.5s1.57 3.5 3.5 3.5c.553 0 1 .448 1 1s-.447 1-1 1z"/></g><g><path d="m6.001 58c-3.032 0-5.5-2.468-5.5-5.5 0-.553.447-1 1-1s1 .447 1 1c0 1.93 1.57 3.5 3.5 3.5.553 0 1 .447 1 1s-.447 1-1 1z"/></g><g><path d="m6.001 11.005c-1.38 0-2.502-1.123-2.502-2.502s1.122-2.502 2.502-2.502c.553 0 1 .448 1 1s-.447 1-1 1c-.276 0-.502.225-.502.502s.226.502.502.502c.553 0 1 .448 1 1s-.447 1-1 1z"/></g><g><path d="m6.501 14c-.553 0-1-.448-1-1s.447-1 1-1c1.103 0 2-.897 2-2s-.897-2-2-2c-.553 0-1-.448-1-1s.447-1 1-1c2.206 0 4 1.794 4 4s-1.794 4-4 4z"/></g><g><path d="m6.501 61c-.553 0-1-.447-1-1v-44c0-.552.447-1 1-1s1 .448 1 1v44c0 .553-.447 1-1 1z"/></g><g><path d="m12.501 55c-.553 0-1-.447-1-1v-44c0-.552.447-1 1-1s1 .448 1 1v44c0 .553-.447 1-1 1z"/></g><g><path d="m6.499 14.001c-.553 0-1-.448-1-1v-2.996c0-.552.447-1 1-1s1 .448 1 1v2.996c0 .552-.447 1-1 1z"/></g><g><path d="m6.499 11.005h-.498c-.553 0-1-.448-1-1s.447-1 1-1h.498c.553 0 1 .448 1 1s-.447 1-1 1z"/></g><g><path d="m6.501 14h-.5c-.553 0-1-.448-1-1s.447-1 1-1h.5c.553 0 1 .448 1 1s-.447 1-1 1z"/></g><g><path d="m6.501 8.001h-.5c-.553 0-1-.448-1-1s.447-1 1-1h.5c.553 0 1 .448 1 1s-.447 1-1 1z"/></g><g><path d="m1.501 53.5c-.553 0-1-.447-1-1v-43.999c0-.552.447-1 1-1s1 .448 1 1v43.999c0 .553-.447 1-1 1z"/></g></g><g><path d="m18.495 17c-3.859 0-7-3.14-7-7s3.141-7 7-7c.553 0 1 .448 1 1s-.447 1-1 1c-2.757 0-5 2.243-5 5s2.243 5 5 5c.553 0 1 .448 1 1s-.447 1-1 1z"/></g><g><path d="m18.495 60.996c-3.859 0-7-3.141-7-7 0-.553.447-1 1-1s1 .447 1 1c0 2.757 2.243 5 5 5 .553 0 1 .447 1 1s-.447 1-1 1z"/></g><g><path d="m21.998 14c-.553 0-1-.448-1-1s.447-1 1-1c1.93 0 3.5-1.57 3.5-3.5s-1.57-3.5-3.5-3.5c-.553 0-1-.448-1-1s.447-1 1-1c3.032 0 5.5 2.467 5.5 5.5s-2.468 5.5-5.5 5.5z"/></g><g><path d="m21.998 11.004c-.553 0-1-.448-1-1s.447-1 1-1c.276 0 .502-.225.502-.502s-.226-.502-.502-.502c-.553 0-1-.448-1-1s.447-1 1-1c1.38 0 2.502 1.123 2.502 2.502s-1.122 2.502-2.502 2.502z"/></g><g><path d="m18.495 13.999c-2.206 0-4-1.794-4-4s1.794-4 4-4c.553 0 1 .448 1 1s-.447 1-1 1c-1.103 0-2 .897-2 2s.897 2 2 2c.553 0 1 .448 1 1s-.447 1-1 1z"/></g><g><path d="m12.495 54.996c-.553 0-1-.447-1-1v-43.996c0-.552.447-1 1-1s1 .448 1 1v43.996c0 .553-.447 1-1 1z"/></g><g><path d="m18.497 14c-.553 0-1-.448-1-1v-2.996c0-.552.447-1 1-1s1 .448 1 1v2.996c0 .552-.447 1-1 1z"/></g><g><path d="m21.998 11.004h-3.501c-.553 0-1-.448-1-1s.447-1 1-1h3.501c.553 0 1 .448 1 1s-.447 1-1 1z"/></g><g><path d="m21.998 13.999h-3.503c-.553 0-1-.448-1-1s.447-1 1-1h3.503c.553 0 1 .448 1 1s-.447 1-1 1z"/></g><g><path d="m21.998 8h-3.503c-.553 0-1-.448-1-1s.447-1 1-1h3.503c.553 0 1 .448 1 1s-.447 1-1 1z"/></g><g><path d="m26.498 16.999c-.553 0-1-.448-1-1v-7.499c0-.552.447-1 1-1s1 .448 1 1v7.499c0 .552-.447 1-1 1z"/></g><g><path d="m62.499 17h-44.004c-.553 0-1-.448-1-1s.447-1 1-1h44.004c.553 0 1 .448 1 1s-.447 1-1 1z"/></g><g><path d="m62.499 60.996h-44.004c-.553 0-1-.447-1-1s.447-1 1-1h44.004c.553 0 1 .447 1 1s-.447 1-1 1z"/></g><g><path d="m62.499 60.996c-.553 0-1-.447-1-1v-43.996c0-.552.447-1 1-1s1 .448 1 1v43.996c0 .553-.447 1-1 1z"/></g><g><g><path d="m21.495 34.001c-.35 0-.688-.184-.872-.51-.271-.481-.101-1.091.381-1.362l16-9c.482-.272 1.091-.1 1.361.381.271.481.101 1.091-.381 1.362l-16 9c-.155.088-.323.129-.489.129z"/></g><g><path d="m53.494 34.001c-.166 0-.334-.041-.489-.128l-16.001-9c-.481-.271-.652-.88-.382-1.362.271-.481.88-.654 1.362-.381l16.001 9c.481.271.652.88.382 1.362-.183.325-.523.509-.873.509z"/></g><g><path d="m21.495 38.001c-.35 0-.688-.184-.872-.51-.271-.481-.101-1.091.381-1.361l16-9c.482-.271 1.091-.1 1.361.381.271.481.101 1.091-.381 1.362l-16 9c-.155.087-.323.128-.489.128z"/></g><g><path d="m53.494 38.001c-.166 0-.334-.041-.489-.128l-16.001-9c-.481-.271-.652-.88-.382-1.362s.88-.653 1.362-.381l16.001 9c.481.271.652.881.382 1.362-.183.325-.523.509-.873.509z"/></g><g><path d="m21.494 38.001c-.553 0-1-.447-1-1v-4c0-.552.447-1 1-1s1 .448 1 1v4c0 .553-.447 1-1 1z"/></g><g><path d="m53.495 38.001c-.553 0-1-.447-1-1v-4c0-.552.447-1 1-1s1 .448 1 1v4c0 .553-.447 1-1 1z"/></g><g><path d="m24.494 52.002c-.553 0-1-.447-1-1v-15.689c0-.553.447-1 1-1s1 .447 1 1v15.688c0 .554-.447 1.001-1 1.001z"/></g><g><path d="m50.494 52.002h-26c-.553 0-1-.447-1-1s.447-1 1-1h26c.553 0 1 .447 1 1s-.447 1-1 1z"/></g><g><path d="m50.494 52.002c-.553 0-1-.447-1-1v-15.689c0-.553.447-1 1-1s1 .447 1 1v15.688c0 .554-.447 1.001-1 1.001z"/></g><g><path d="m40.494 52.002h-6c-.553 0-1-.447-1-1v-10c0-.553.447-1 1-1h6c.553 0 1 .447 1 1v10c0 .553-.447 1-1 1zm-5-2h4v-8h-4z"/></g><g><path d="m18.494 38.001h-2c-.553 0-1-.447-1-1s.447-1 1-1h2c.553 0 1 .447 1 1s-.447 1-1 1z"/></g><g><path d="m18.494 34.001h-2c-.553 0-1-.447-1-1 0-.552.447-1 1-1h2c.553 0 1 .448 1 1 0 .553-.447 1-1 1z"/></g><g><path d="m17.494 38.001c-.553 0-1-.447-1-1v-4c0-.552.447-1 1-1s1 .448 1 1v4c0 .553-.447 1-1 1z"/></g><g><path d="m58.494 38.001h-1.999c-.553 0-1-.447-1-1s.447-1 1-1h1.999c.553 0 1 .447 1 1s-.447 1-1 1z"/></g><g><path d="m57.494 52.002c-.553 0-1-.447-1-1v-13.814c0-.553.447-1 1-1s1 .447 1 1v13.813c0 .554-.447 1.001-1 1.001z"/></g><g><path d="m58.494 52.002h-2c-.553 0-1-.447-1-1s.447-1 1-1h2c.553 0 1 .447 1 1s-.447 1-1 1z"/></g><g><path d="m24.494 57.002c-.553 0-1-.447-1-1v-2c0-.553.447-1 1-1s1 .447 1 1v2c0 .553-.447 1-1 1z"/></g><g><path d="m50.494 57.002c-.553 0-1-.447-1-1v-2c0-.553.447-1 1-1s1 .447 1 1v2c0 .553-.447 1-1 1z"/></g><g><path d="m50.494 56.002h-26c-.553 0-1-.447-1-1s.447-1 1-1h26c.553 0 1 .447 1 1s-.447 1-1 1z"/></g><g><path d="m53.494 22.001h-32c-.553 0-1-.448-1-1s.447-1 1-1h32c.553 0 1 .448 1 1s-.447 1-1 1z"/></g><g><path d="m53.494 23.001c-.553 0-1-.448-1-1v-2c0-.552.447-1 1-1s1 .448 1 1v2c0 .552-.447 1-1 1z"/></g><g><path d="m21.494 23.001c-.553 0-1-.448-1-1v-2c0-.552.447-1 1-1s1 .448 1 1v2c0 .552-.447 1-1 1z"/></g></g><g><path d="m6.501 5h-.5c-.553 0-1-.448-1-1s.447-1 1-1h.5c.553 0 1 .448 1 1s-.447 1-1 1z"/></g><g><path d="m21.998 5h-3.503c-.553 0-1-.448-1-1s.447-1 1-1h3.503c.553 0 1 .448 1 1s-.447 1-1 1z"/></g></g></svg>