<?xml version="1.0" encoding="iso-8859-1"?>
<!-- Generator: Adobe Illustrator 19.0.0, SVG Export Plug-In . SVG Version: 6.00 Build 0)  -->
<svg version="1.1" id="Capa_1" xmlns="http://www.w3.org/2000/svg" xmlns:xlink="http://www.w3.org/1999/xlink" x="0px" y="0px"
	 viewBox="0 0 512.002 512.002" style="enable-background:new 0 0 512.002 512.002;" xml:space="preserve">
<path style="fill:#898890;" d="M492.684,208.503v81.845h-48.603c-5.097,24.207-14.632,46.774-27.705,66.833l25.736,25.726
	c-5.347,0.03-10.694,0.75-15.881,2.169l-96.247-96.257c5.907-11.863,9.235-25.236,9.235-39.388
	c0-48.863-39.608-88.471-88.461-88.471c-48.863,0-88.471,39.608-88.471,88.471c0,48.853,39.608,88.461,88.471,88.461
	c14.102,0,27.435-3.308,39.268-9.185l94.928,94.938c-1.669,4.777-2.708,9.725-3.148,14.712l-23.297-23.307
	c-20.059,13.073-42.627,22.608-66.833,27.705v48.603H209.83v-48.603c-24.207-5.097-46.774-14.632-66.823-27.705l-34.391,34.381
	l-57.868-57.868l34.381-34.381c-13.073-20.059-22.598-42.627-27.695-66.833H8.821v-81.845h48.613
	c5.097-24.207,14.622-46.774,27.695-66.823l-34.381-34.391l57.868-57.868l34.391,34.381c20.049-13.073,42.617-22.598,66.823-27.695
	V7.494h81.845v48.613c24.207,5.097,46.774,14.622,66.833,27.695l34.381-34.381l57.868,57.868l-34.381,34.391
	c13.073,20.049,22.608,42.617,27.705,66.823H492.684z"/>
<g>
	<path style="fill:#57565C;" d="M290.025,328.707l94.928,94.938c-1.669,4.777-2.708,9.725-3.148,14.712l-23.297-23.307
		c-20.059,13.073-42.627,22.608-66.833,27.705v48.603h-40.917V337.892C264.859,337.892,278.192,334.584,290.025,328.707z"/>
	<path style="fill:#57565C;" d="M492.684,208.503v81.845h-48.603c-5.097,24.207-14.632,46.774-27.705,66.833l25.736,25.726
		c-5.347,0.03-10.694,0.75-15.881,2.169l-96.247-96.257c5.907-11.863,9.235-25.236,9.235-39.388
		c0-48.863-39.608-88.471-88.461-88.471V7.494h40.917v48.613c24.207,5.097,46.774,14.622,66.833,27.695l34.381-34.381l57.868,57.868
		l-34.381,34.391c13.073,20.049,22.608,42.617,27.705,66.823H492.684z"/>
</g>
<path style="fill:#FED322;" d="M432.807,434.129l-7.116,26.226l39.638,39.628c-21.978,8.955-48.123,4.517-65.954-13.313
	c-17.051-17.051-21.858-41.697-14.422-63.035L274.214,312.896c-20.379,5.587-43.106,0.39-59.117-15.621
	c-17.83-17.83-22.268-43.976-13.313-65.954l39.638,39.638l26.216-7.116l7.116-26.216l-39.638-39.638
	c21.978-8.955,48.123-4.518,65.954,13.313c17.051,17.051,21.848,41.697,14.422,63.035L426.23,385.076
	c20.379-5.587,43.096-0.39,59.117,15.621c17.83,17.83,22.268,43.976,13.313,65.954l-39.638-39.638L432.807,434.129z"/>
<path style="fill:#FF9911;" d="M465.33,499.983c-21.978,8.955-48.123,4.517-65.954-13.313
	c-17.051-17.051-21.858-41.697-14.422-63.035L274.215,312.896c-20.379,5.587-43.106,0.39-59.117-15.621
	c-17.83-17.83-22.268-43.976-13.313-65.954l39.638,39.638l26.216-7.116l165.169,170.286l-7.116,26.226L465.33,499.983z"/>
<g>
	<path style="fill:#FFFFFF;" d="M312.554,306.733c3.288,3.288,6.955,6.956,10.902,10.902"/>
	<path style="fill:#FFFFFF;" d="M336.522,330.702c11.327,11.327,23.803,23.805,35.739,35.741"/>
</g>
<path style="fill:#020202;" d="M490.645,395.396c-12.226-12.225-28.51-19.169-45.353-19.908l-19.377-19.377
	c11.07-18.125,19.174-37.674,24.154-58.266h50.113v-96.84h-50.113c-4.979-20.59-13.083-40.139-24.154-58.265l35.449-35.449
	l-68.475-68.475l-35.449,35.448c-18.125-11.068-37.674-19.171-58.266-24.151V0h-96.839v50.113
	c-20.592,4.979-40.141,13.084-58.265,24.153L108.62,38.818l-68.475,68.475l35.448,35.449c-11.07,18.125-19.174,37.674-24.154,58.265
	H1.326v96.84H51.44c4.979,20.592,13.084,40.142,24.154,58.266l-35.448,35.449l68.475,68.475l35.449-35.448
	c18.124,11.069,37.673,19.173,58.265,24.153v50.114h96.839v-50.114c20.592-4.979,40.141-13.084,58.265-24.153l16.712,16.712
	c-0.595,18.63,6.424,37.172,19.923,50.671c13.086,13.086,30.499,20.03,48.256,20.03c8.681,0,17.446-1.66,25.826-5.075l10.454-4.26
	l-44.545-44.544l4.849-17.884l17.882-4.849l44.546,44.545l4.26-10.454C515.999,443.958,510.128,414.88,490.645,395.396z
	 M266.38,239.851l-4.849,17.883l-17.883,4.849l-44.545-44.545l-4.26,10.454c-10.397,25.52-4.527,54.599,14.956,74.083
	c16.259,16.259,39.694,23.177,62.077,18.582l4.949,4.949c-8.342,2.846-17.072,4.292-26.071,4.292
	c-44.647,0-80.971-36.324-80.971-80.971c0-44.648,36.324-80.972,80.971-80.972s80.971,36.324,80.971,80.972
	c0,9.048-1.46,17.821-4.337,26.204l-3.407-3.407c6.328-23.409-0.335-48.946-17.61-66.221
	c-19.482-19.484-48.562-25.356-74.082-14.957l-10.455,4.26L266.38,239.851z M354.41,408.772
	c-19.706,12.846-41.331,21.811-64.279,26.644l-5.951,1.253v47.193h-66.855v-47.193l-5.951-1.253
	c-22.946-4.833-44.572-13.798-64.279-26.644l-5.094-3.32l-33.384,33.383L61.344,391.56l33.383-33.384l-3.321-5.094
	c-12.846-19.705-21.81-41.332-26.644-64.279l-1.253-5.951h-47.19v-66.856H63.51l1.253-5.951
	c4.833-22.944,13.797-44.57,26.644-64.278l3.321-5.094l-33.383-33.384l47.274-47.274l33.384,33.384l5.094-3.32
	c19.706-12.847,41.332-21.811,64.279-26.644l5.951-1.253V14.992h66.855v47.192l5.951,1.253
	c22.946,4.833,44.572,13.798,64.279,26.644l5.094,3.32l33.384-33.384l47.274,47.274l-33.384,33.384l3.321,5.094
	c12.847,19.708,21.811,41.334,26.644,64.278l1.253,5.951h47.192v66.856h-47.192l-1.253,5.951
	c-4.832,22.945-13.797,44.572-26.644,64.279l-2.077,3.184l-62.449-62.452l-6.592-6.592c5.136-11.938,7.736-24.627,7.736-37.796
	c0-52.914-43.049-95.964-95.963-95.964s-95.963,43.049-95.963,95.964c0,52.914,43.049,95.963,95.963,95.963
	c13.121,0,25.768-2.582,37.671-7.682l68.04,68.044l1.018,1.018L354.41,408.772z M494.963,452.354l-33.709-33.708l-34.562,9.372
	l-9.372,34.562l33.708,33.709c-16.726,2.769-34.009-2.573-46.356-14.92c-11.42-11.42-16.89-27.466-15.299-43.212
	c0.063-0.612,0.133-1.222,0.217-1.831c0.041-0.303,0.08-0.607,0.127-0.909c0.137-0.879,0.296-1.751,0.476-2.62
	c0.045-0.216,0.09-0.432,0.138-0.648c0.202-0.917,0.424-1.83,0.674-2.733c0.041-0.149,0.086-0.297,0.129-0.446
	c0.248-0.868,0.518-1.727,0.809-2.58c1.018-2.137,6.744-13.695,15.129-22.079l-10.6-10.601c-5.645,5.645-10.185,12.255-13.34,17.507
	l-49.289-49.291l-42.32-42.323l0,0l-15.089-15.09l-4.203,1.151c-18.464,5.066-38.324-0.183-51.831-13.689
	c-12.346-12.348-17.689-29.632-14.919-46.357l33.708,33.709l34.562-9.373l9.372-34.561l-33.709-33.708
	c16.727-2.765,34.011,2.574,46.356,14.92c14.368,14.368,19.329,36.06,12.641,55.264l-1.307,3.751
	c-2.158,3.769-5.577,9.066-9.807,13.297l10.601,10.599c3.948-3.949,7.25-8.456,9.774-12.399l106.338,106.343l4.202-1.151
	c1.148-0.315,2.302-0.59,3.458-0.826c0.204-0.042,0.41-0.076,0.615-0.115c0.371-0.071,0.741-0.144,1.111-0.207
	c0.314-0.053,0.629-0.097,0.942-0.145c0.266-0.04,0.532-0.085,0.798-0.121c0.304-0.041,0.609-0.073,0.914-0.109
	c0.283-0.033,0.567-0.072,0.85-0.1c0.213-0.022,0.427-0.036,0.641-0.055c0.381-0.034,0.762-0.071,1.141-0.096
	c0.056-0.004,0.111-0.005,0.167-0.009c15.154-0.983,30.257,4.534,41.194,15.473C492.391,418.344,497.734,435.628,494.963,452.354z"
	/>
<g>
	
		<rect x="310.301" y="304.686" transform="matrix(0.7071 0.7071 -0.7071 0.7071 313.8883 -133.4303)" style="fill:#FFFFFF;" width="15.416" height="14.992"/>
	
		<rect x="329.121" y="341.08" transform="matrix(0.7071 0.7071 -0.7071 0.7071 350.2793 -148.4984)" style="fill:#FFFFFF;" width="50.544" height="14.991"/>
	<path style="fill:#FFFFFF;" d="M287.578,382.296l4.02,14.443c6.284-1.749,12.509-3.928,18.506-6.474l-5.861-13.799
		C298.842,378.76,293.236,380.721,287.578,382.296z"/>
	<path style="fill:#FFFFFF;" d="M250.785,387.297c-75.47,0-136.87-61.4-136.87-136.87c0-7.793,0.66-15.602,1.96-23.215
		l-14.778-2.524c-1.442,8.442-2.174,17.103-2.174,25.739c0,83.737,68.125,151.861,151.861,151.861c4.922,0,9.889-0.238,14.763-0.71
		l-1.44-14.922C259.71,387.081,255.228,387.297,250.785,387.297z"/>
	<path style="fill:#FFFFFF;" d="M156.1,151.592l-10.373-10.824c-4.28,4.103-8.361,8.498-12.131,13.067l11.564,9.542
		C148.559,159.257,152.24,155.291,156.1,151.592z"/>
	<path style="fill:#FFFFFF;" d="M250.785,113.556c16.087,0,31.835,2.763,46.807,8.211l5.127-14.088
		c-16.621-6.049-34.094-9.115-51.934-9.115c-33.374,0-65.041,10.62-91.58,30.711l9.049,11.952
		C192.166,123.125,220.706,113.556,250.785,113.556z"/>
</g>
<g>
</g>
<g>
</g>
<g>
</g>
<g>
</g>
<g>
</g>
<g>
</g>
<g>
</g>
<g>
</g>
<g>
</g>
<g>
</g>
<g>
</g>
<g>
</g>
<g>
</g>
<g>
</g>
<g>
</g>
</svg>
