<?xml version="1.0"?>
<svg xmlns="http://www.w3.org/2000/svg" viewBox="0 0 64 64" width="512" height="512"><g id="Consult-Talk"><rect x="16" y="25" width="2" height="2"/><rect x="26" y="25" width="2" height="2"/><path d="M61.142,36.01l-3.907-.558a14,14,0,0,0-.657-1.6L58.942,30.7a1,1,0,0,0-.093-1.307l-4.243-4.243A.989.989,0,0,0,54,24.867V15.241A8,8,0,0,0,57,9a7.917,7.917,0,0,0-4.573-7.224A1,1,0,0,0,51,2.68v5.6l-2,.667-2-.667V2.68a1,1,0,0,0-1.427-.9A7.917,7.917,0,0,0,41,9a8,8,0,0,0,3,6.241V22H41a1,1,0,0,0-.99.858l-.647,4.529,1.98.283L41.867,24h4.266l.524,3.67a1,1,0,0,0,.71.818,11.939,11.939,0,0,1,2.4.987,1,1,0,0,0,1.081-.077l2.961-2.22,3.016,3.016L54.6,33.155a1,1,0,0,0-.077,1.081,11.939,11.939,0,0,1,.987,2.4,1,1,0,0,0,.818.71l3.67.524v4.266l-3.67.524a1,1,0,0,0-.818.71,11.939,11.939,0,0,1-.987,2.4,1,1,0,0,0,.077,1.081l2.22,2.961-3.016,3.016L50.845,50.6a1,1,0,0,0-1.081-.077,11.939,11.939,0,0,1-2.4.987,1,1,0,0,0-.71.818L46.133,56H42V51.771a11.1,11.1,0,0,0-.45-3.121,9.11,9.11,0,1,0-6.394-7.062c-.024-.01-.047-.022-.071-.031L27,38.323V36.786A11.089,11.089,0,0,0,30.479,34H33a3,3,0,0,0,3-3V28.816A3,3,0,0,0,38,26V23a3,3,0,0,0-2-2.816V19A14,14,0,0,0,8,19v1.184A3,3,0,0,0,6,23v3a3,3,0,0,0,3,3h2c.064,0,.126-.01.189-.014A11.023,11.023,0,0,0,17,36.786v1.537L8.915,41.557A10.949,10.949,0,0,0,2,51.771V61a1,1,0,0,0,1,1H41a1,1,0,0,0,1-1V58h5a1,1,0,0,0,.99-.858l.558-3.907a14,14,0,0,0,1.6-.657L53.3,54.942a1,1,0,0,0,1.307-.093l4.243-4.243a1,1,0,0,0,.093-1.307l-2.364-3.152a14,14,0,0,0,.657-1.6l3.907-.558A1,1,0,0,0,62,43V37A1,1,0,0,0,61.142,36.01Zm-11-8.588c-.047-.023-.1-.038-.147-.06V15H48v7.93l-.01-.072A1,1,0,0,0,47,22H46V14.74a1,1,0,0,0-.429-.821A6,6,0,0,1,45,4.522V9a1,1,0,0,0,.684.949l3,1a1,1,0,0,0,.632,0l3-1A1,1,0,0,0,53,9V4.522a6,6,0,0,1-.571,9.4A1,1,0,0,0,52,14.74V26.033ZM37,40a7.05,7.05,0,1,1,3.333,5.941,10.916,10.916,0,0,0-2.611-2.877A6.836,6.836,0,0,1,37,40Zm-4-8H31.786a10.9,10.9,0,0,0,1.025-3.014c.063,0,.125.014.189.014h1v2A1,1,0,0,1,33,32ZM31,21a3.015,3.015,0,0,1-2.4-1.2l-1.8-2.4a1,1,0,0,0-.674-.392,1.011,1.011,0,0,0-.751.211L22.019,19.9A5.018,5.018,0,0,1,18.9,21H13V20a9,9,0,0,1,18,0Zm5,5a1,1,0,0,1-1,1H33V22h2a1,1,0,0,1,1,1ZM22,7A12.013,12.013,0,0,1,34,19v1H33a11,11,0,0,0-22,0H10V19A12.013,12.013,0,0,1,22,7ZM9,27a1,1,0,0,1-1-1V23a1,1,0,0,1,1-1h2v5Zm4,0V23h5.9a7.024,7.024,0,0,0,4.372-1.534l2.551-2.041L27,21a5.025,5.025,0,0,0,4,2v4a8.947,8.947,0,0,1-1.522,5H22v2h5.644A8.991,8.991,0,0,1,13,27Zm9,11a10.966,10.966,0,0,0,3-.426V39a3,3,0,0,1-6,0V37.574A10.966,10.966,0,0,0,22,38ZM40,60H34V49H32V60H12V49H10V60H4V51.771a8.958,8.958,0,0,1,5.658-8.357l7.563-3.025a4.968,4.968,0,0,0,9.558,0l7.563,3.025A8.958,8.958,0,0,1,40,51.771Z"/><rect x="43" y="26" width="2" height="2"/><rect x="43" y="52" width="2" height="2"/><rect x="52.192" y="48.192" width="2" height="2" transform="translate(-19.205 52.021) rotate(-45)"/><rect x="56" y="39" width="2" height="2"/><rect x="52.192" y="29.808" width="2" height="2" transform="translate(-6.205 46.636) rotate(-45)"/></g></svg>
