<svg id="Layer_35" enable-background="new 0 0 64 64" height="512" viewBox="0 0 64 64" width="512" xmlns="http://www.w3.org/2000/svg"><g fill="#f0bc5e"><path d="m32 50c-9.925 0-18-8.075-18-18s8.075-18 18-18 18 8.075 18 18-8.075 18-18 18zm0-31c-7.168 0-13 5.832-13 13s5.832 13 13 13 13-5.832 13-13-5.832-13-13-13z"/><path d="m49 7h10v2h-10z"/><path d="m49 55h10v2h-10z"/><path d="m5 55h10v2h-10z"/><path d="m5 7h10v2h-10z"/></g><path d="m32 18c-7.72 0-14 6.28-14 14s6.28 14 14 14 14-6.28 14-14-6.28-14-14-14zm11.949 15c-.213 2.558-1.226 4.888-2.795 6.741l-2.79-2.791-1.414 1.414 2.791 2.791c-1.852 1.569-4.183 2.582-6.741 2.795v-3.95h-2v3.949c-2.558-.213-4.888-1.226-6.741-2.795l2.791-2.791-1.414-1.414-2.79 2.791c-1.569-1.852-2.582-4.183-2.795-6.741h3.949v-2h-3.949c.213-2.558 1.226-4.888 2.795-6.741l2.79 2.791 1.414-1.414-2.791-2.791c1.852-1.569 4.183-2.582 6.741-2.795v3.951h2v-3.949c2.558.213 4.888 1.226 6.741 2.795l-2.791 2.791 1.414 1.414 2.79-2.791c1.569 1.852 2.582 4.183 2.795 6.741h-3.949v2h3.949z"/><path d="m26 33h5v2h2v-4h-7z"/><path d="m53 7h2v2h-2z"/><path d="m57 7h2v2h-2z"/><path d="m49 7h2v2h-2z"/><path d="m9 7h2v2h-2z"/><path d="m5 7h2v2h-2z"/><path d="m13 7h2v2h-2z"/><path d="m9 55h2v2h-2z"/><path d="m5 55h2v2h-2z"/><path d="m13 55h2v2h-2z"/><path d="m56 49h-5.645l2.704-2.704-2.009-3.333c.951-1.65 1.681-3.41 2.175-5.244l3.775-.937v-9.564l-3.774-.936c-.494-1.836-1.224-3.596-2.175-5.245l2.009-3.333-2.705-2.704h5.645c3.859 0 7-3.14 7-7s-3.141-7-7-7h-4c-3.859 0-7 3.14-7 7v3.722l-2.037 1.228c-1.651-.953-3.41-1.682-5.245-2.175l-.936-3.775h-9.564l-.936 3.774c-1.835.493-3.594 1.223-5.245 2.175l-2.037-1.227v-3.722c0-3.86-3.141-7-7-7h-4c-3.859 0-7 3.14-7 7s3.141 7 7 7h5.645l-2.704 2.704 2.009 3.333c-.951 1.649-1.681 3.408-2.175 5.245l-3.775.936v9.564l3.774.936c.494 1.834 1.224 3.594 2.175 5.244l-2.009 3.333 2.705 2.705h-5.645c-3.859 0-7 3.14-7 7s3.141 7 7 7h4c3.859 0 7-3.14 7-7v-3.722l2.037-1.228c1.651.953 3.41 1.682 5.245 2.175l.936 3.775h9.564l.936-3.774c1.835-.493 3.594-1.223 5.245-2.175l2.037 1.227v3.722c0 3.86 3.141 7 7 7h4c3.859 0 7-3.14 7-7s-3.141-7-7-7zm-9-41c0-2.757 2.243-5 5-5h4c2.757 0 5 2.243 5 5s-2.243 5-5 5h-9zm-44 0c0-2.757 2.243-5 5-5h4c2.757 0 5 2.243 5 5v5h-9c-2.757 0-5-2.243-5-5zm14 48c0 2.757-2.243 5-5 5h-4c-2.757 0-5-2.243-5-5s2.243-5 5-5h9zm25.961-7.286-.519.318c-1.796 1.104-3.742 1.911-5.783 2.398l-.592.142-.849 3.428h-6.436l-.85-3.427-.592-.142c-2.041-.488-3.987-1.295-5.783-2.398l-.519-.318-2.038 1.228v-.943h-2.527l-3.011-3.012 1.824-3.027-.318-.519c-1.104-1.795-1.91-3.742-2.399-5.784l-.142-.591-3.427-.849v-6.436l3.427-.85.142-.591c.489-2.044 1.297-3.99 2.398-5.783l.319-.519-1.824-3.028 3.011-3.011h2.527v-.943l2.039 1.229.519-.318c1.796-1.104 3.742-1.911 5.783-2.398l.592-.142.849-3.428h6.436l.85 3.427.592.142c2.041.488 3.987 1.295 5.783 2.398l.519.318 2.038-1.228v.943h2.527l3.011 3.012-1.824 3.028.319.519c1.102 1.793 1.909 3.739 2.398 5.783l.142.591 3.427.849v6.436l-3.427.85-.142.591c-.489 2.042-1.296 3.988-2.399 5.784l-.318.519 1.824 3.027-3.011 3.011h-2.527v.943zm13.039 12.286h-4c-2.757 0-5-2.243-5-5v-5h9c2.757 0 5 2.243 5 5s-2.243 5-5 5z"/><path d="m53 55h2v2h-2z"/><path d="m57 55h2v2h-2z"/><path d="m49 55h2v2h-2z"/></svg>