<?xml version="1.0"?>
<svg xmlns="http://www.w3.org/2000/svg" id="Outline" viewBox="0 0 512 512" width="512" height="512">
    <path
        d="M80,248a8,8,0,0,0,8,8h96a8,8,0,0,0,8-8V152a8,8,0,0,0-8-8H88a8,8,0,0,0-8,8Zm16-8V192h16v24a8,8,0,0,0,13.657,5.657L136,211.313l10.343,10.344A8,8,0,0,0,160,216V192h16v48Zm32-80h16v36.687l-2.343-2.344a8,8,0,0,0-11.314,0L128,196.687Zm48,16H160V160h16Zm-64-16v16H96V160Z" />
    <path
        d="M240,256a24,24,0,1,0,32-22.624V214.624a24,24,0,0,0,0-45.248V150.624a24,24,0,1,0-16,0v18.752a24,24,0,0,0,0,45.248v18.752A24.039,24.039,0,0,0,240,256Zm24,8a8,8,0,1,1,8-8A8.009,8.009,0,0,1,264,264Zm0-144a8,8,0,1,1-8,8A8.009,8.009,0,0,1,264,120Zm0,64a8,8,0,1,1-8,8A8.009,8.009,0,0,1,264,184Z" />
    <path d="M312,136h80a8,8,0,0,0,0-16H312a8,8,0,0,0,0,16Z" />
    <path d="M424,136h16a8,8,0,0,0,0-16H424a8,8,0,0,0,0,16Z" />
    <path d="M312,200h80a8,8,0,0,0,0-16H312a8,8,0,0,0,0,16Z" />
    <path d="M424,200h16a8,8,0,0,0,0-16H424a8,8,0,0,0,0,16Z" />
    <path d="M312,264h80a8,8,0,0,0,0-16H312a8,8,0,0,0,0,16Z" />
    <path d="M424,264h16a8,8,0,0,0,0-16H424a8,8,0,0,0,0,16Z" />
    <path
        d="M456,40H56A40.045,40.045,0,0,0,16,80V352a40.045,40.045,0,0,0,40,40H182.241l-14.086,70.431A8,8,0,0,0,176,472H336a8,8,0,0,0,7.845-9.569L329.759,392H456a40.045,40.045,0,0,0,40-40V80A40.045,40.045,0,0,0,456,40ZM56,56H456a24.028,24.028,0,0,1,24,24V312H32V80A24.028,24.028,0,0,1,56,56ZM326.241,456H185.759l12.8-64H313.441ZM456,376H56a24.028,24.028,0,0,1-24-24V328H480v24A24.028,24.028,0,0,1,456,376Z" />
    <circle cx="72" cy="80" r="8" />
    <circle cx="104" cy="80" r="8" />
    <circle cx="136" cy="80" r="8" />
    <path d="M264,344H248a8,8,0,0,0,0,16h16a8,8,0,0,0,0-16Z" />
</svg>
