<svg id="_x33_0" enable-background="new 0 0 64 64" height="512" viewBox="0 0 64 64" width="512" xmlns="http://www.w3.org/2000/svg"><g><path d="m56.293 40.293-5.293 5.293-5.293-5.293-1.414 1.414 5.293 5.293-5.293 5.293 1.414 1.414 5.293-5.293 5.293 5.293 1.414-1.414-5.293-5.293 5.293-5.293z"/><path d="m63 47c0-4.831-2.876-8.994-7-10.895v-21.105c0-1.103-.897-2-2-2h-9v-2h6c1.103 0 2-.897 2-2v-3c0-2.757-2.243-5-5-5h-34c-2.757 0-5 2.243-5 5v7h-6c-1.103 0-2 .897-2 2v38c0 .366.106.705.278 1-.172.295-.278.634-.278 1v1c0 3.859 3.141 7 7 7h41c3.066 0 5.77-2.054 6.665-4.944 4.306-1.824 7.335-6.093 7.335-11.056zm-9-32v20.395c-.648-.168-1.315-.287-2-.344v-18.051h-7v-2zm-9 4h5v16.051c-1.811.15-3.505.705-5 1.573zm6-13v3h-6v-3c0-1.654 1.346-3 3-3s3 1.346 3 3zm-40 0c0-1.654 1.346-3 3-3h30.026c-.635.838-1.026 1.87-1.026 3v32.081c-1.478 1.327-2.622 3.011-3.3 4.919h-28.7zm0 39h28.181c-.11.652-.181 1.317-.181 2s.071 1.348.181 2h-32.181v-30h2v24c0 1.103.897 2 2 2zm-8-30h6v2h-4v34h34.7c.248.699.556 1.367.923 2h-37.623zm46 46h-41c-2.757 0-5-2.243-5-5v-1h39.081c2.198 2.448 5.377 4 8.919 4 .726 0 1.433-.076 2.124-.2-.913 1.333-2.443 2.2-4.124 2.2zm2-4c-5.514 0-10-4.486-10-10s4.486-10 10-10 10 4.486 10 10-4.486 10-10 10z"/><path d="m33 15h-20v16h20zm-2 14h-16v-12h16z"/><path d="m35 15h6v2h-6z"/><path d="m35 19h6v2h-6z"/><path d="m35 23h6v2h-6z"/><path d="m35 27h6v2h-6z"/><path d="m13 41h6v-6h-6zm2-4h2v2h-2z"/><path d="m21 41h6v-6h-6zm2-4h2v2h-2z"/><path d="m29 41h6v-6h-6zm2-4h2v2h-2z"/><path d="m13 11h28v2h-28z"/><path d="m13 7h28v2h-28z"/></g></svg>