<?xml version="1.0" encoding="iso-8859-1"?>
<!-- Generator: Adobe Illustrator 19.0.0, SVG Export Plug-In . SVG Version: 6.00 Build 0)  -->
<svg version="1.1" id="Capa_1" xmlns="http://www.w3.org/2000/svg" xmlns:xlink="http://www.w3.org/1999/xlink" x="0px" y="0px"
	 viewBox="0 0 511.999 511.999" style="enable-background:new 0 0 511.999 511.999;" xml:space="preserve">
<g>
	<g>
		<path d="M319.673,106.713c-1.177-3.62-4.308-6.257-8.074-6.804l-32.227-4.674l-14.421-29.198c-1.685-3.412-5.16-5.572-8.966-5.572
			c-0.001,0-0.002,0-0.003,0c-3.807,0.001-7.282,2.163-8.966,5.577l-14.404,29.206l-32.224,4.691
			c-3.767,0.548-6.896,3.188-8.071,6.808c-1.175,3.62-0.193,7.594,2.533,10.25l23.327,22.724l-5.496,32.096
			c-0.643,3.752,0.9,7.543,3.98,9.78c1.742,1.265,3.804,1.908,5.877,1.908c1.593,0,3.191-0.38,4.654-1.15l28.82-15.161
			l28.827,15.146c3.37,1.771,7.453,1.475,10.531-0.764c3.079-2.238,4.62-6.03,3.976-9.781l-5.513-32.094l23.313-22.736
			C319.871,114.307,320.85,110.333,319.673,106.713z M276.104,129.054c-2.355,2.298-3.431,5.608-2.873,8.852l2.973,17.305
			l-15.544-8.166c-2.914-1.531-6.395-1.529-9.307,0.002l-15.541,8.174l2.964-17.307c0.556-3.244-0.521-6.554-2.878-8.851
			l-12.576-12.252l17.375-2.529c3.257-0.474,6.072-2.521,7.528-5.472l7.766-15.748l7.775,15.744c1.457,2.951,4.273,4.996,7.53,5.468
			l17.378,2.521L276.104,129.054z"/>
	</g>
</g>
<g>
	<g>
		<path d="M414.75,292.115l-44.324-125.133c-0.154-0.435-0.344-0.846-0.55-1.245c16.685-43.619,7.475-94.955-27.633-130.045
			C323.308,16.766,299.316,4.82,272.864,1.147c-25.583-3.551-52.125,1.208-74.744,13.402c-4.861,2.621-6.677,8.687-4.056,13.548
			c2.619,4.862,8.685,6.676,13.549,4.057c39.315-21.199,88.864-13.926,120.491,17.685c39.781,39.76,39.799,104.473,0.039,144.255
			c-39.76,39.782-104.474,39.799-144.255,0.039c-31.628-31.611-38.926-81.157-17.748-120.484c2.618-4.862,0.799-10.927-4.063-13.547
			c-4.861-2.618-10.928-0.799-13.546,4.063c-12.184,22.626-16.931,49.173-13.365,74.752c1.524,10.934,4.483,21.437,8.743,31.345
			L93.461,277.596c-1.548,3.292-1.186,7.166,0.946,10.114c2.133,2.948,5.699,4.506,9.309,4.067l63.725-7.735l35.037,53.789
			c1.854,2.846,5.013,4.542,8.377,4.542c0.234,0,0.471-0.008,0.706-0.025c3.624-0.256,6.824-2.457,8.359-5.749l35.111-75.297
			l28.557,78.46c1.242,3.413,4.238,5.885,7.825,6.456c0.525,0.083,1.051,0.124,1.572,0.124c3.044,0,5.958-1.392,7.87-3.833
			l39.591-50.53l62.81,13.258c3.542,0.75,7.206-0.475,9.589-3.196C415.231,299.321,415.958,295.525,414.75,292.115z
			 M209.406,311.823L180.8,267.906c-2.081-3.195-5.807-4.926-9.584-4.469l-51.965,6.308l36.65-77.979
			c4.09,5.839,8.701,11.367,13.848,16.512c19.574,19.564,44.622,31.655,71.688,34.852L209.406,311.823z M338.484,271.123
			c-3.728-0.789-7.585,0.615-9.937,3.617l-32.325,41.255l-26.488-72.776c27.403-3.051,52.78-15.201,72.557-34.988
			c5.702-5.705,10.712-11.842,15.047-18.303l32.607,92.057L338.484,271.123z"/>
	</g>
</g>
<g>
	<g>
		<path d="M183.858,35.741l-0.072-0.072c-3.906-3.905-10.236-3.905-14.143,0c-3.905,3.905-3.905,10.237,0,14.143l0.073,0.072
			c1.953,1.953,4.512,2.929,7.071,2.929s5.118-0.976,7.071-2.929C187.763,45.979,187.763,39.647,183.858,35.741z"/>
	</g>
</g>
<g>
	<g>
		<path d="M407.111,446.996c-1.869-1.86-4.439-2.93-7.069-2.93c-2.641,0-5.21,1.07-7.07,2.93c-1.87,1.86-2.93,4.44-2.93,7.07
			c0,2.64,1.06,5.21,2.93,7.07c1.86,1.87,4.43,2.93,7.07,2.93c2.63,0,5.2-1.06,7.069-2.93c1.86-1.86,2.931-4.43,2.931-7.07
			C410.042,451.437,408.972,448.866,407.111,446.996z"/>
	</g>
</g>
<g>
	<g>
		<path d="M495.185,374.433c-4.52-10.669-12.97-18.826-23.793-22.966c-10.823-4.139-22.559-3.705-33.046,1.225L297.757,418.78
			c-1.508-9.948-7.096-18.886-15.889-24.713l-67.016-44.411c-1.639-1.085-3.56-1.664-5.524-1.664h-92.929v-10
			c0-5.523-4.478-10-10-10H23.457c-5.522,0-10,4.477-10,10s4.478,10,10,10h72.941v144.005H23.457c-5.522,0-10,4.477-10,10
			s4.478,10,10,10h82.941c5.522,0,10-4.477,10-10v-0.661l33.393,10.223c0.949,0.291,1.936,0.438,2.928,0.438h110.357
			c26.586,0,53.276-6.142,77.187-17.762l28.74-13.966c4.967-2.414,7.037-8.397,4.623-13.365c-2.413-4.969-8.397-7.038-13.365-4.624
			l-28.74,13.966c-21.202,10.303-44.87,15.75-68.443,15.75H154.216L116.4,480.42V367.995h89.916l64.505,42.747
			c5.522,3.66,8.192,9.75,7.141,16.293c-1.052,6.541-5.496,11.488-11.888,13.232c-4.462,1.219-9.259,0.489-13.159-2.002
			l-45.113-28.813c-4.656-2.972-10.839-1.609-13.812,3.045c-2.973,4.655-1.609,10.838,3.045,13.812l45.113,28.813
			c5.904,3.771,12.733,5.721,19.624,5.721c3.205,0,6.424-0.422,9.567-1.28c10.582-2.888,18.938-10.048,23.37-19.564h2.696
			c1.471,0,2.923-0.324,4.254-0.95l145.194-68.253c5.52-2.595,11.695-2.824,17.393-0.645c5.696,2.179,10.143,6.471,12.521,12.086
			c4.616,10.895-0.105,23.481-10.748,28.653l-36.606,17.79c-4.967,2.414-7.037,8.397-4.623,13.365
			c1.729,3.56,5.293,5.632,9.001,5.632c1.467,0,2.957-0.324,4.364-1.008l36.606-17.79
			C494.984,419.05,503.955,395.136,495.185,374.433z"/>
	</g>
</g>
<g>
	<g>
		<path d="M80.859,394.829c-3.73-4.073-10.054-4.352-14.13-0.622l-0.087,0.08c-4.072,3.73-4.351,10.055-0.621,14.128
			c1.973,2.154,4.671,3.247,7.378,3.247c2.412,0,4.831-0.868,6.751-2.625l0.087-0.08C84.31,405.227,84.589,398.902,80.859,394.829z"
			/>
	</g>
</g>
<g>
</g>
<g>
</g>
<g>
</g>
<g>
</g>
<g>
</g>
<g>
</g>
<g>
</g>
<g>
</g>
<g>
</g>
<g>
</g>
<g>
</g>
<g>
</g>
<g>
</g>
<g>
</g>
<g>
</g>
</svg>
