<svg id="Capa_1" enable-background="new 0 0 511.98 511.98" height="512" viewBox="0 0 511.98 511.98" width="512" xmlns="http://www.w3.org/2000/svg"><g><path d="m255.984 402.982c-4.143 0-7.5 3.358-7.5 7.5v25.25c0 4.142 3.357 7.5 7.5 7.5s7.5-3.358 7.5-7.5v-25.25c0-4.142-3.358-7.5-7.5-7.5z"/><path d="m85.835 511.98h340.31c12.007 0 21.774-9.768 21.774-21.775v-22.5c0-4.142-3.357-7.5-7.5-7.5s-7.5 3.358-7.5 7.5v22.5c0 3.736-3.039 6.775-6.774 6.775h-41.341v-65.915c0-4.142-3.357-7.5-7.5-7.5s-7.5 3.358-7.5 7.5v65.915h-227.628v-65.915c0-4.142-3.357-7.5-7.5-7.5s-7.5 3.358-7.5 7.5v65.915h-41.341c-3.735 0-6.774-3.039-6.774-6.775v-69.654c0-28.913 20.51-47.874 34.334-53.592 5.186-2.025 48.911-19.102 55.741-21.77 3.83 6.784 69.894 123.792 72.806 128.949 6.176 10.939 21.92 10.945 28.099-.002 3.185-5.642 69.525-123.186 72.696-128.805 57.214 22.158 55.853 21.477 59.027 23.092 15.508 8.083 31.155 27.336 31.155 52.128v12.154c0 4.142 3.357 7.5 7.5 7.5s7.5-3.358 7.5-7.5v-12.154c0-33.205-21.129-56-39.287-65.464-4.453-2.266-19.216-7.764-30.078-11.971 25.249-23.182 19.329-68.494-.815-78.88-9.064-4.673-17.913-10.552-20.854-31.939 3.724-3.323 6.642-7.314 8.617-11.695-.46 10.578 7.975 19.937 19.142 19.937h21.175c12.553 0 21.715-11.859 18.53-24.013l-8.696-33.176c1.874-3.361 2.946-7.227 2.946-11.34 0-10.261-6.652-18.992-15.867-22.125v-69.254c0-.021-.003-.041-.003-.062-.022-6.515-3.648-12.371-9.476-15.292 0 0 0 0-.001 0l-124.105-62.181c-8.238-4.128-18.075-4.126-26.313 0l-124.106 62.181c-5.848 2.93-9.479 8.813-9.479 15.354s3.633 12.423 9.48 15.354l33.741 16.906v44.542 17.588c0 2.758.415 5.443 1.177 7.995-4.53 3.629-10.141 13.244-10.141 23.896 0 9.605 4.219 18.808 11.586 25.382-2.743 20.814-10.733 27.151-20.913 32.4-20.042 10.333-25.991 55.24-1.206 78.516l-25.103 9.804c-.042.016-.084.033-.126.05-21.039 8.658-43.684 33.471-43.684 67.487v69.654c.001 12.007 9.768 21.775 21.775 21.775zm126.72-120.4-29.305-51.903 27.305-10.664 23.336 32.67c2.97 4.158 3.179 9.595.534 13.852-5.078 8.171-12.496 13.629-21.87 16.045zm-20.048-159.426v-21.494c20.612 7.396 42.047 10.981 63.482 10.981 21.476 0 42.909-3.599 63.483-10.981v20.805c0 33.376-26.532 61.609-59.775 63.092-37.858 1.684-67.19-27.335-67.19-62.403zm-18.601-46.159c-.031-.017-.063-.032-.094-.049-3.716-2.004-6.342-6.105-6.342-10.925v-4.647c22.094 10.762 45.72 17.32 70.354 19.516 4.103.372 7.769-2.678 8.137-6.804.367-4.126-2.679-7.769-6.805-8.136-25.261-2.251-49.375-9.462-71.686-21.426v-33.117l75.363 37.76c7.929 3.974 17.821 4.255 26.313 0l75.363-37.76v33.117c-22.31 11.963-46.425 19.175-71.687 21.426-4.126.368-7.172 4.01-6.805 8.136s4.02 7.175 8.137 6.804c24.633-2.195 48.262-8.754 70.354-19.516v4.647c0 4.249-2.047 7.916-5.018 10.09-.002.001-.004.003-.006.004-1 .731-35.572 21.527-83.496 21.527-27.995-.001-56.492-6.868-82.082-20.647zm3.601 18.544v22.035c-10.443-1.193-19.002-9.296-19.002-19.663 0-3.882 1.26-7.676 3.588-10.902 3.669 3.108 10.64 6.335 15.414 8.53zm172.38-8.53c2.327 3.225 3.587 7.019 3.587 10.903 0 10.32-8.564 18.519-19.002 19.664v-22.036c4.451-2.043 11.797-5.462 15.415-8.531zm-86.716 184.346c-4.573 1.877-9.787 1.873-14.356-.011 4.03-8.842 3.089-19.25-2.716-27.379l-23.658-33.121c.649-1.564 1.094-3.671 1.094-5.664v-11.401c18.904 8.28 43.151 9.89 64.861.054l.009 11.412v.001.002c.006 1.819.381 3.824 1.122 5.616l-23.643 33.101c-5.812 8.132-6.75 18.546-2.713 27.39zm-6.193 86.407c-.438.78-1.537.778-1.974.001l-34.879-61.776c7.739-2.648 14.322-6.781 19.771-12.292 9.95 5.363 22.246 5.367 32.198.01 5.66 5.748 12.625 9.904 19.75 12.279zm42.434-75.185c-13.982-3.592-29.713-18.151-21.325-29.893l23.158-32.421 27.357 10.594zm71.451-114.009c11.088 5.717 16.733 45.304-8.906 59.12l-58.554-22.676v-.032l-.007-20.114c16.143-12.289 27.5-30.712 30.397-52.183 2.957-.147 6.242-.693 9.245-1.611 4.478 20.957 13.398 30.057 27.825 37.496zm38.976-57.24c.69 2.638-1.289 5.21-4.021 5.21h-21.175c-2.728 0-4.712-2.572-4.02-5.21l6.885-26.269c2.419.85 5.016 1.317 7.721 1.317 2.706 0 5.304-.468 7.723-1.317zm-14.608-56.686c4.614 0 8.368 3.754 8.368 8.368 0 4.689-4.004 8.326-8.293 8.363-4.074.078-8.442-3.379-8.442-8.363-.001-4.614 3.753-8.368 8.367-8.368zm-7.499-13.758c-9.216 3.132-15.868 11.864-15.868 22.126 0 4.114 1.073 7.98 2.947 11.341l-6.354 24.242c.196-9.581-4.13-19.375-10.117-24.595.758-2.546 1.171-5.226 1.171-7.977v-17.588-44.542l28.222-14.14v51.133zm-262.285-67.31c-.991-.497-1.199-1.331-1.199-1.943s.208-1.447 1.199-1.943l124.104-62.181c4.02-2.014 8.831-2.026 12.876 0l113.014 56.624h-96.82c-3.152-9.485-12.103-16.347-22.633-16.347-13.149 0-23.847 10.698-23.847 23.847s10.697 23.847 23.847 23.847c10.529 0 19.481-6.862 22.633-16.347h96.819l-26.787 13.421c-.001 0-.002.001-.004.001l-86.223 43.201c-4.03 2.019-8.844 2.02-12.876 0l-86.223-43.201c-.001 0-.002-.001-.004-.001zm139.39-1.943c0 4.878-3.969 8.847-8.848 8.847-4.878 0-8.847-3.969-8.847-8.847s3.969-8.847 8.847-8.847c4.879 0 8.848 3.968 8.848 8.847zm-123.784 197.394c14.562-7.509 23.543-16.755 27.93-37.94 2.962.901 6.299 1.449 9.124 1.595 2.62 21.457 13.927 40.151 30.425 52.399l-.002 19.621c-6.881 2.687-52.628 20.555-59.172 23.111-24.761-13.993-19.501-53.014-8.305-58.786z"/></g></svg>