<svg height="512" viewBox="0 0 64 64" width="512" xmlns="http://www.w3.org/2000/svg"><g id="Upload_cloud_cloud_computing_storage_server" data-name="Upload_cloud_cloud computing_storage_server"><path d="m12 23a5.019 5.019 0 0 1 4.582-4.975l-.163-1.993a7 7 0 0 0 .581 13.968v-2a5.006 5.006 0 0 1 -5-5z"/><path d="m16 40a3 3 0 1 0 3 3 3 3 0 0 0 -3-3zm0 4a1 1 0 1 1 1-1 1 1 0 0 1 -1 1z"/><path d="m54 36h-8.74a14.175 14.175 0 0 0 .86-2h.88a10.991 10.991 0 0 0 3.29-21.48 8.991 8.991 0 0 0 -11.6-4.89 12.979 12.979 0 0 0 -23.36 4.5 11 11 0 0 0 1.67 21.87h.88a14.175 14.175 0 0 0 .86 2h-8.74a1 1 0 0 0 -1 1v24a1 1 0 0 0 1 1h44a1 1 0 0 0 1-1v-24a1 1 0 0 0 -1-1zm-37-7a14.819 14.819 0 0 0 .3 3h-.3a9 9 0 0 1 -.75-17.96 1.009 1.009 0 0 0 .91-.84 10.982 10.982 0 0 1 20.3-3.79 1 1 0 0 0 1.32.38 6.988 6.988 0 0 1 9.82 3.88 1.006 1.006 0 0 0 .69.64 8.992 8.992 0 0 1 -2.29 17.69h-.3a14.819 14.819 0 0 0 .3-3 15 15 0 0 0 -30 0zm2 0a13 13 0 1 1 13 13 13.012 13.012 0 0 1 -13-13zm6 14a1 1 0 1 1 -1-1 1 1 0 0 1 1 1zm28 17h-42v-10h42zm0-12h-42v-10h9.03a15.766 15.766 0 0 0 2.34 2.49 3 3 0 1 0 4.62 2.63 14.878 14.878 0 0 0 16.98-5.12h9.03z"/><path d="m43 40h2v2h-2z"/><path d="m43 44h2v2h-2z"/><path d="m37 44h2v2h-2z"/><path d="m49 40h2v2h-2z"/><path d="m49 44h2v2h-2z"/><path d="m16 58a3 3 0 1 0 -3-3 3 3 0 0 0 3 3zm0-4a1 1 0 1 1 -1 1 1 1 0 0 1 1-1z"/><path d="m24 58a3 3 0 1 0 -3-3 3 3 0 0 0 3 3zm0-4a1 1 0 1 1 -1 1 1 1 0 0 1 1-1z"/><path d="m32 58a3 3 0 1 0 -3-3 3 3 0 0 0 3 3zm0-4a1 1 0 1 1 -1 1 1 1 0 0 1 1-1z"/><path d="m49 52h2v2h-2z"/><path d="m49 56h2v2h-2z"/><path d="m43 52h2v2h-2z"/><path d="m43 56h2v2h-2z"/><path d="m37 52h2v2h-2z"/><path d="m37 56h2v2h-2z"/><path d="m2 42v13a1 1 0 0 0 1 1h4v-2h-3v-11h3v-2h-4a1 1 0 0 0 -1 1z"/><path d="m61 41h-4v2h3v11h-3v2h4a1 1 0 0 0 1-1v-13a1 1 0 0 0 -1-1z"/><path d="m40.66 25.25-8-7a1 1 0 0 0 -1.32 0l-8 7a.981.981 0 0 0 -.34.75v5a1 1 0 0 0 1.64.77l4.36-3.63v10.86a1 1 0 0 0 1 1h4a1 1 0 0 0 1-1v-10.86l4.36 3.63a1 1 0 0 0 1.64-.77v-5a.981.981 0 0 0 -.34-.75zm-1.66 3.61-4.36-3.63a1 1 0 0 0 -1.64.77v12h-2v-12a1 1 0 0 0 -1.64-.77l-4.36 3.63v-2.41l7-6.12 7 6.12z"/><path d="m54 23a7 7 0 0 0 -5.224-6.761l-.506 1.935a4.994 4.994 0 0 1 -1.27 9.826v2a7.008 7.008 0 0 0 7-7z"/></g></svg>